<?xml version="1.0" encoding="utf-8"?>
<!-- Generator: Adobe Illustrator 27.8.1, SVG Export Plug-In . SVG Version: 6.00 Build 0)  -->
<svg version="1.1" id="Layer_1" xmlns="http://www.w3.org/2000/svg" xmlns:xlink="http://www.w3.org/1999/xlink" x="0px" y="0px"
	 viewBox="0 0 318.4 90.7" style="enable-background:new 0 0 318.4 90.7;" xml:space="preserve">
<style type="text/css">
	.st0{fill:#FFFFFF;}
</style>
<g id="SvgjsG2817" transform="matrix(2.52100811377734,0,0,2.52100811377734,-9.015827585854555e-7,13.579837724453201)">
	<path class="st0" d="M4.3,19.9L2.2,12l-0.3,0.5V20H0V5.7h1.9v3.1l1.2-3.1h2.3L3.5,9.8l2.7,10.1C6.2,19.9,4.3,19.9,4.3,19.9z
		 M16.1,5.7H18L16.1,20h-2l-1-7.2L12.2,20h-2l-2-14.3h1.9l1,7.4l1-7.4h1.9l1,7.4L16.1,5.7z M22.7,20c-1.5,0-2.7-1.2-2.7-2.7V8.4
		c0-1.5,1.2-2.7,2.7-2.7s2.7,1.2,2.7,2.7v0.8h-1.9V8.4c0-0.4-0.4-0.8-0.8-0.8S21.9,8,21.9,8.4v8.9c0,0.4,0.4,0.8,0.8,0.8
		s0.8-0.4,0.8-0.8V16h1.9v1.3C25.3,18.8,24.1,20,22.7,20z"/>
</g>
<g id="SvgjsG2818" transform="matrix(2.8349999999999995,0,0,2.8349999999999995,84,0)">
	<g>
		<path class="st0" d="M29.5,21h-2.7c0-0.2-0.1-0.5-0.2-0.7l4.8-2.4c0.5-0.2,0.7-0.8,0.4-1.3c-0.2-0.5-0.8-0.7-1.3-0.4L26,18.4
			c-1.7-3.8-5.6-6.4-10-6.4c-5.4,0-9.9,3.9-10.8,9H2.5C1.1,21,0,22.1,0,23.5c0,0.5,0.2,1,0.5,1.3L4,28.8v0.7C4,30.9,5.1,32,6.5,32
			h19c1.4,0,2.5-1.1,2.5-2.5v-0.7l3.5-3.9c0.3-0.4,0.5-0.8,0.5-1.3C32,22.1,30.9,21,29.5,21z M25.8,21h-0.6l0.5-0.2
			C25.8,20.8,25.8,20.9,25.8,21z M16,13c4,0,7.5,2.4,9.1,5.8l-0.9,0.4C22.8,16.2,19.6,14,16,14c-4.3,0-7.9,3-8.8,7h-1
			C7.1,16.4,11.2,13,16,13z M20.6,21c-0.8-1.8-2.5-3-4.6-3s-3.8,1.2-4.6,3h-1.1c0.8-2.3,3-4,5.6-4c2.5,0,4.6,1.5,5.5,3.6L20.8,21
			H20.6z M16,20c-0.9,0-1.7,0.4-2.2,1h-1.2c0.7-1.2,2-2,3.4-2c1.5,0,2.8,0.8,3.4,2h-1.2C17.7,20.4,16.9,20,16,20z M16,16
			c-3.2,0-5.8,2.1-6.7,5h-1c0.9-3.4,4-6,7.7-6c3.2,0,6,1.9,7.3,4.7l-0.9,0.4C21.3,17.7,18.9,16,16,16z M26,28v1.5
			c0,0.3-0.2,0.5-0.5,0.5h-19C6.2,30,6,29.8,6,29.5V28l-4-4.5C2,23.2,2.2,23,2.5,23H5h1h1h1h1h1h1h1h1h6h1h1h1h1h1h1h1h1h2.5
			c0.3,0,0.5,0.2,0.5,0.5L26,28z"/>
		<path class="st0" d="M8,11.7C8,11.7,8,11.7,8,11.7C8,11.7,8,11.7,8,11.7C8.1,11.9,8.2,12,8.4,12c0.3,0,0.5-0.2,0.5-0.5
			c0,0,0-0.1,0-0.1c0,0,0,0,0,0c-0.4-0.9,0-1.9,0.4-2.9c0.5-1.1,1-2.4,0.4-3.6C9.7,4.6,9.5,4.5,9.3,4.5C9,4.5,8.8,4.7,8.8,5
			c0,0.1,0,0.1,0,0.2c0,0,0,0,0,0c0,0,0,0,0,0c0,0,0,0,0,0c0.4,0.9,0,1.8-0.4,2.9C8,9.2,7.4,10.4,8,11.7C8,11.7,8,11.7,8,11.7z"/>
		<path class="st0" d="M20.2,11.6C20.2,11.6,20.2,11.6,20.2,11.6L20.2,11.6c0.1,0.2,0.3,0.3,0.5,0.3c0.3,0,0.5-0.2,0.5-0.5
			c0,0,0-0.1,0-0.1c0,0,0,0,0,0c-0.4-0.9,0-1.9,0.4-2.9c0.5-1.1,1-2.4,0.4-3.6c-0.1-0.2-0.2-0.3-0.5-0.3c-0.3,0-0.5,0.2-0.5,0.5
			C21,4.9,21,5,21,5c0,0,0,0,0,0c0,0,0,0,0,0c0,0,0,0,0,0c0.4,0.9,0,1.8-0.4,2.9C20.1,9,19.6,10.3,20.2,11.6
			C20.1,11.5,20.1,11.6,20.2,11.6z"/>
		<path class="st0" d="M15,7.2C15,7.2,15,7.2,15,7.2C15,7.2,15,7.2,15,7.2c0.1,0.2,0.3,0.3,0.5,0.3C15.7,7.5,16,7.3,16,7
			c0,0,0-0.1,0-0.1c0,0,0,0,0,0C15.6,6,15.9,5,16.4,4c0.5-1.1,1-2.4,0.4-3.6C16.7,0.1,16.5,0,16.3,0c-0.3,0-0.5,0.2-0.5,0.5
			c0,0.1,0,0.1,0,0.2c0,0,0,0,0,0c0,0,0,0,0,0c0,0,0,0,0,0c0.4,0.9,0,1.8-0.4,2.9C15,4.7,14.5,5.9,15,7.2C15,7.2,15,7.2,15,7.2z"/>
	</g>
</g>
<g id="SvgjsG2819" transform="matrix(2.4489794647331258,0,0,2.4489794647331258,182.72081711330196,14.628574364664798)">
	<path class="st0" d="M8,20.2H7.5C6.1,20.2,5,19,5,17.6V8c0-1.4,1.1-2.5,2.5-2.5H8c1.4,0,2.5,1.1,2.5,2.5v1h-2V8
		c0-0.3-0.2-0.6-0.6-0.6H7.5C7.2,7.4,7,7.7,7,8v9.6c0,0.3,0.3,0.6,0.6,0.6H8c0.3,0,0.6-0.3,0.6-0.6v-5.2H7.4v-1.9h3.1v7.1
		C10.5,19,9.4,20.2,8,20.2z M18,20h-2l-1.1-3h-0.4v3h-1.9V5.7h3c1.3,0,2.4,1.1,2.4,2.4v6.5c0,0.9-0.4,1.6-1.1,2L18,20z M14.4,7.6
		v7.5h1.1c0.3,0,0.5-0.2,0.5-0.5V8.1c0-0.3-0.2-0.5-0.5-0.5C15.5,7.6,14.4,7.6,14.4,7.6z M22.7,20c-1.5,0-2.7-1.2-2.7-2.7v-9
		c0-1.5,1.2-2.7,2.7-2.7c1.5,0,2.7,1.2,2.7,2.7v9C25.4,18.8,24.2,20,22.7,20z M22.7,7.6c-0.4,0-0.8,0.4-0.8,0.8v9
		c0,0.4,0.3,0.8,0.8,0.8c0.4,0,0.8-0.3,0.8-0.8v-9C23.5,7.9,23.1,7.6,22.7,7.6z M30.1,20c-1.5,0-2.7-1.2-2.7-2.7V8.4
		c0-1.5,1.2-2.7,2.7-2.7c1.5,0,2.7,1.2,2.7,2.7v0.8h-1.9V8.4c0-0.4-0.4-0.8-0.8-0.8S29.3,8,29.3,8.4v8.9c0,0.4,0.4,0.8,0.8,0.8
		s0.8-0.4,0.8-0.8V16h1.9v1.3C32.8,18.8,31.6,20,30.1,20z M39.4,12.5h-2.8v5.6h2.8V20h-4.7V5.7h4.7v1.9h-2.8v2.9h2.8V12.5z M46.9,20
		h-2l-1.1-3h-0.4v3h-1.9V5.7h3c1.3,0,2.4,1.1,2.4,2.4v6.5c0,0.9-0.4,1.6-1.1,2L46.9,20z M43.4,7.6v7.5h1.1c0.3,0,0.5-0.2,0.5-0.5
		V8.1c0-0.3-0.2-0.5-0.5-0.5C44.4,7.6,43.4,7.6,43.4,7.6z M55.4,5.7l-2.7,8.7V20h-1.9v-5.6l-2.5-8.7h2l1.5,5.1l1.6-5.1
		C53.4,5.7,55.4,5.7,55.4,5.7z"/>
</g>
</svg>
